# xmcd CD database file
#
# Track frame offsets:
#	150
#	22485
#	44395
#	60072
#	78600
#	104620
#	124960
#	142462
#	162252
#	175720
#	199502
#	222382
#	239520
#
# Disc length: 3863 seconds
#
# Revision: 0
# Processed by: cddbd v1.4PL0 Copyright (c) Steve Scherf et al.
# Submitted via: CDex 1.40Beta8
#
DISCID=c40f150d
DTITLE=Blues Women and Whiskey - Too Far Gone
DYEAR=1995
DGENRE=Blues
TTITLE0=Too far gone
TTITLE1=Hey Mama
TTITLE2=Magic Seven
TTITLE3=King Size Dick
TTITLE4=The night time
TTITLE5=City
TTITLE6=You
TTITLE7=Tonight the devil
TTITLE8=Why
TTITLE9=Watermelon Man
TTITLE10=Just can't stand now more
TTITLE11=Land of 1000 dances
TTITLE12=Stormy Monday Blues
EXTD=YEAR: 1995 ID3G: 0
EXTT0=
EXTT1=
EXTT2=
EXTT3=
EXTT4=
EXTT5=
EXTT6=
EXTT7=
EXTT8=
EXTT9=
EXTT10=
EXTT11=
EXTT12=
PLAYORDER=
